
    <svg xmlns="http://www.w3.org/2000/svg" viewBox="0 0 24 24" fill="none">
      <path
        d="M12 0C5.373 0 0 5.373 0 12s5.373 12 12 12 12-5.373 12-12S18.627 0 12 0zm0 2c5.523 0 10 4.477 10 10s-4.477 10-10 10S2 17.523 2 12 6.477 2 12 2zm-1.5 4c-2.485 0-4.5 2.015-4.5 4.5v3c0 2.485 2.015 4.5 4.5 4.5 1.553 0 2.922-.788 3.73-1.986l-1.73-1c-.427.632-1.14 1.036-1.95 1.036-1.38 0-2.5-1.12-2.5-2.5v-3c0-1.38 1.12-2.5 2.5-2.5.81 0 1.523.404 1.95 1.036l1.73-1C13.422 6.788 12.053 6 10.5 6z"
        fill="#A8B9CC"
      />
    </svg>