
    <svg xmlns="http://www.w3.org/2000/svg" viewBox="0 0 24 24" fill="none">
      <path
        d="M23.53 14.33c-.01-.13-.03-.25-.06-.38-.05-.18-.13-.35-.22-.52-.08-.14-.18-.28-.3-.4-.14-.16-.31-.3-.49-.41-.11-.07-.22-.13-.34-.17-.18-.08-.37-.12-.56-.15-.17-.02-.34-.03-.52-.02.04-.37.03-.75-.05-1.11-.09-.4-.25-.78-.49-1.11-.2-.27-.45-.49-.75-.66-.31-.18-.65-.29-1.01-.34-.41-.06-.82-.04-1.22.06-.05-1.19-.51-2.31-1.3-3.18-.83-.91-1.95-1.54-3.18-1.78-1.12-.23-2.28-.1-3.32.38-1.04.47-1.91 1.25-2.48 2.22-.56.97-.81 2.09-.72 3.2.04.44.15.87.31 1.28-.73.18-1.39.55-1.91 1.07-.52.52-.89 1.18-1.07 1.91-.07.28-.1.57-.1.86v.29c-1.4.38-2.61 1.3-3.41 2.51-.76 1.14-1.1 2.52-.96 3.89.14 1.37.74 2.65 1.69 3.6.95.95 2.23 1.55 3.6 1.69h13.9c.12 0 .25 0 .37-.01 1.27-.06 2.47-.59 3.39-1.5.91-.91 1.45-2.12 1.51-3.39.06-1.15-.22-2.3-.8-3.3z"
        fill="#F38020"
      />
    </svg>