
    <svg xmlns="http://www.w3.org/2000/svg" viewBox="0 0 24 24" fill="none">
      <path
        d="M13.983 11.078h2.119c.102 0 .186-.083.186-.185V9.03c0-.102-.084-.186-.186-.186h-2.119c-.102 0-.186.084-.186.186v1.863c0 .102.084.185.186.185zM11.531 11.078h2.119c.102 0 .186-.083.186-.185V9.03c0-.102-.084-.186-.186-.186H11.531c-.102 0-.186.084-.186.186v1.863c0 .102.084.185.186.185zM9.079 11.078h2.119c.102 0 .186-.083.186-.185V9.03c0-.102-.084-.186-.186-.186H9.079c-.102 0-.186.084-.186.186v1.863c0 .102.084.185.186.185zM6.627 11.078h2.119c.102 0 .186-.083.186-.185V9.03c0-.102-.084-.186-.186-.186H6.627c-.102 0-.186.084-.186.186v1.863c0 .102.084.185.186.185zM11.531 8.614h2.119c.102 0 .186-.083.186-.185V6.565c0-.102-.084-.185-.186-.185H9.451s-3.24-.052-3.24 3.148v5.31S5.72 24 12.087 24zm3.206-1.85c-.578 0-1.046-.468-1.046-1.046 0-.578.468-1.046 1.046-1.046.578 0 1.046.468 1.046 1.046 0 .578-.468 1.046-1.046 1.046z"
        fill="#2496ED"
      />
      <path
        d="M23.763 11.072c-.103-.1-.456-.27-.456-.27l-.317-.11-.237-.043-.223.018-.182.046c-.053.015-.098.05-.125.097-.027.047-.035.103-.021.155.127.46.126.945-.002 1.405-.173.618-.553 1.157-1.077 1.528-.483.342-1.06.527-1.652.534-.401.006-.8-.08-1.164-.251H0v.578s.004 1.18.04 1.543c.097.947.382 1.866.83 2.7l.135.228c1.373 2.19 3.733 3.52 6.305 3.55 1.564.01 3.1-.408 4.414-1.201 1.637-.98 2.87-2.484 3.49-4.257.65-1.855.617-3.87-.09-5.7.35-.015.7-.01 1.05-.01h1.365l.62-.06.45-.145.337-.19.223-.213.136-.264.068-.316.002-.33-.045-.316z"
        fill="#2496ED"
      />
    </svg>