
    <svg xmlns="http://www.w3.org/2000/svg" viewBox="0 0 24 24" fill="none">
      <path d="M1.5 0h21l-1.91 21.563L11.977 24l-8.565-2.438L1.5 0z" fill="#E34F26" />
      <path d="M12 22.018l6.927-1.921 1.63-18.248H12v20.169z" fill="#EF652A" />
      <path
        d="M12 10.606H8.488L8.268 8.1H12V5.657H5.52l.064.712.657 7.374H12v-2.437zm0 6.905l-.014.004-2.648-.715-.169-1.893H6.73l.332 3.719 4.87 1.351.014-.004v-2.462z"
        fill="#EBEBEB"
      />
      <path
        d="M11.991 10.606v2.437h3.263l-.308 3.44-2.955.796v2.462l5.429-1.505.04-.448.623-6.982.065-.712h-.714l-5.443-.001zm0-4.949v2.443h6.651l.055-.617.124-1.39.064-.712-6.894-.001z"
        fill="#FFF"
      />
    </svg>