
    <svg xmlns="http://www.w3.org/2000/svg" viewBox="0 0 24 24" fill="none">
      <path
        d="M16.1 13.5c-.1-.1-.3-.2-.4-.2.1.4.1.8.1 1.2 0 2.5-1.6 4.3-3.8 4.3-2.1 0-3.8-1.7-3.8-4.1 0-.4 0-.9.1-1.3l-.4.2c-1.3.7-2.1 2.1-2.1 3.7 0 2.5 1.8 4.7 4.1 5.4l-.1.1c-.2.2-.2.4-.1.6s.4.2.6.1l.6-.5c.2-.2.2-.4.1-.6-.1-.1-.1-.1-.2-.2 2.7-.4 4.9-2.4 5.7-4.9.1-.5.3-1 .4-1.5.1-.4 0-.8-.1-1.3z"
        fill="#764ABC"
      />
      <path
        d="M7.9 10.5c.1.1.3.2.4.2-.1-.4-.1-.8-.1-1.2 0-2.5 1.6-4.3 3.8-4.3 2.1 0 3.8 1.7 3.8 4.1 0 .4 0 .9-.1 1.3l.4-.2c1.3-.7 2.1-2.1 2.1-3.7 0-2.5-1.8-4.7-4.1-5.4l.1-.1c.2-.2.2-.4.1-.6s-.4-.2-.6-.1l-.6.5c-.2.2-.2.4-.1.6.1.1.1.1.2.2-2.7.4-4.9 2.4-5.7 4.9-.1.5-.3 1-.4 1.5-.1.4 0 .8.1 1.3z"
        fill="#764ABC"
      />
    </svg>