
    <svg xmlns="http://www.w3.org/2000/svg" viewBox="0 0 24 24" fill="none">
      <path d="M22.5 12c0 5.8-4.7 10.5-10.5 10.5S1.5 17.8 1.5 12 6.2 1.5 12 1.5 22.5 6.2 22.5 12z" fill="#CF649A" />
      <path
        d="M12 4.5c-4.1 0-7.5 3.4-7.5 7.5s3.4 7.5 7.5 7.5 7.5-3.4 7.5-7.5-3.4-7.5-7.5-7.5zm0 13.5c-3.3 0-6-2.7-6-6s2.7-6 6-6 6 2.7 6 6z"
        fill="#FFF"
      />
      <path
        d="M12 6c-3.3 0-6 2.7-6 6s2.7 6 6 6c1.1 0 2.1-.3 3-.8l.8 1.4c-1.1.6-2.4.9-3.8.9-4.1 0-7.5-3.4-7.5-7.5s3.4-7.5 7.5-7.5c1.4 0 2.7.4 3.8 1l-.8 1.4c-.9-.6-1.9-.9-3-.9z"
        fill="#FFF"
      />
    </svg>