
    <svg xmlns="http://www.w3.org/2000/svg" viewBox="0 0 24 24" fill="none">
      <path
        d="M12.001 6.002c-2.666 0-4.333 1.334-5 4 1-1.333 2.166-1.833 3.5-1.5.761.19 1.306.741 1.91 1.35.986 1 2.096 2.148 4.59 2.148 2.666 0 4.333-1.334 5-4-1 1.333-2.166 1.833-3.5 1.5-.761-.19-1.306-.741-1.91-1.35-.986-1-2.096-2.148-4.59-2.148zM7.001 12.002c-2.666 0-4.333 1.334-5 4 1-1.333 2.166-1.833 3.5-1.5.761.19 1.306.741 1.91 1.35.986 1 2.096 2.148 4.59 2.148 2.666 0 4.333-1.334 5-4-1 1.333-2.166 1.833-3.5 1.5-.761-.19-1.306-.741-1.91-1.35-.986-1-2.096-2.148-4.59-2.148z"
        fill="#38BDF8"
      />
    </svg>